<?xml version="1.0" encoding="UTF-8" standalone="no"?>
<svg xmlns="http://www.w3.org/2000/svg" viewBox="0 0 120 120">
  <defs>
    <mask id="mask">
      <rect fill="white" height="100%" width="100%"></rect>
      <path class="logo-fill" d="M76,31.05l-21-12a8,8,0,0,0-7.94,0l-21,12A8,8,0,0,0,22,38V62a8,8,0,0,0,4,6.95l21,12a8,8,0,0,0,7.94,0l21-12A8,8,0,0,0,80,62V38A8,8,0,0,0,76,31.05ZM51,74,30,62V41.07A30,30,0,0,1,58,70ZM72,62l-6.38,3.65A38.09,38.09,0,0,0,36.89,34.06L51,26,72,38Z"></path>
      <path class="logo-path" d="M76,31.05l-21-12a8,8,0,0,0-7.94,0l-21,12A8,8,0,0,0,22,38V62a8,8,0,0,0,4,6.95l21,12a8,8,0,0,0,7.94,0l21-12A8,8,0,0,0,80,62V38A8,8,0,0,0,76,31.05ZM51,74,30,62V41.07A30,30,0,0,1,58,70ZM72,62l-6.38,3.65A38.09,38.09,0,0,0,36.89,34.06L51,26,72,38Z"></path>
    </mask>
  </defs>
  <path class="logo-fill" d="M76,31.05l-21-12a8,8,0,0,0-7.94,0l-21,12A8,8,0,0,0,22,38V62a8,8,0,0,0,4,6.95l21,12a8,8,0,0,0,7.94,0l21-12A8,8,0,0,0,80,62V38A8,8,0,0,0,76,31.05ZM51,74,30,62V41.07A30,30,0,0,1,58,70ZM72,62l-6.38,3.65A38.09,38.09,0,0,0,36.89,34.06L51,26,72,38Z"></path>
  <path class="logo-path" d="M76,31.05l-21-12a8,8,0,0,0-7.94,0l-21,12A8,8,0,0,0,22,38V62a8,8,0,0,0,4,6.95l21,12a8,8,0,0,0,7.94,0l21-12A8,8,0,0,0,80,62V38A8,8,0,0,0,76,31.05ZM51,74,30,62V41.07A30,30,0,0,1,58,70ZM72,62l-6.38,3.65A38.09,38.09,0,0,0,36.89,34.06L51,26,72,38Z"></path>

  <style>
    .logo-path {
    fill: none;
    stroke: #00aaff;
    stroke-width: 2;
    stroke-linecap: round;
    stroke-dasharray: 600;
    stroke-dashoffset: 600;
    animation: trace 4s linear infinite;
    filter: drop-shadow(0 0 5px #00aaff);
    }
    .logo-fill {
      stroke: #00aaff;
      fill: #00aaff;
    }
    @keyframes trace {
    0% {
    stroke-dashoffset: 600;
    opacity: 0;
    }
    20% {
    opacity: 1;
    }
    100% {
    stroke-dashoffset: 0;
    opacity: 0;
    }
    }
  </style>
</svg>
